<?xml version="1.0" encoding="utf-8"?>
<!-- Generator: Adobe Illustrator 19.0.0, SVG Export Plug-In . SVG Version: 6.00 Build 0)  -->
<svg version="1.1" id="layer" xmlns="http://www.w3.org/2000/svg" xmlns:xlink="http://www.w3.org/1999/xlink" x="0px" y="0px"
	 viewBox="-153 -46 652 652" style="enable-background:new -153 -46 652 652;" xml:space="preserve">
<style type="text/css">
	.st0{fill:#44208D;}
	.st1{fill:#00866B;}
</style>
<path class="st0" d="M-185.8,31.7c-0.3-0.4-0.6-0.9-0.9-1.3c-2.4,0-4.9,0-7.3,0c-0.4,0.7-0.9,1.2-1.4,1.7l0,0
	C-192.5,33.4-189.1,33.7-185.8,31.7z M194.3,267.1c-11.9,0.3-23.7-0.3-35.5,0c-5.3,0.2-7.5-1.1-7.3-6.8c0.1-5.4,0.7-8.8,7.4-8.4
	c9.3,0.6,18.6,0.3,27.9,0.3c15.5,0,9.2-12,10.4-19.5c1.3-8-2.6-11.7-10.7-11.6c-9.2,0.1-18.3-0.6-27.5-0.2c-5.2,0.2-7.5-0.8-7.7-6.6
	c-0.1-6.1,1.8-8.1,8-7.8c10.1,0.4,20.3-0.9,30.4,0.1c11.1,1.2,13.5-4.2,12.7-13.3c-0.7-8.3,4.3-19.9-11.8-19.4
	c-19.7,0.6-39.6,0.6-59.3,0.3c-9.4-0.1-12.7,4-12.7,12.9c0.1,33,0.2,65.9-0.1,99c-0.1,10,4.3,13.7,13.8,13.4
	c10.2-0.3,20.3-0.1,30.4-0.1v-0.1c10.6,0,21.1,0,31.7,0c15.3,0,9.4-11.9,10.7-19.4C206.4,271.7,203.7,266.9,194.3,267.1z
	 M302.4,264.2c-3.5-5.7-3.3-8.6,2.6-13c13.2-9.9,19.5-33.4,12.7-49.5c-6.6-15.6-18.2-27-36.7-28.4c-2.5-0.2-6.1,1.7-7.4-2.5
	c-1.7,0-3.4,0-5.1,0c-5.9,4-11.9,3.9-17.8,0c-8.5,0-16.9,0-25.5,0c-2,3.8-7.8,4-7.9,10.1c-0.3,35.9-1.2,71.8-1.6,107.7
	c0,4.9,1.1,10,7.8,11.4c19.7,4.2,27-1.5,26.8-21.6c0-3.4-0.3-6.7,0-10.2c0.2-2.9-1.8-7.5,3.5-7.8c3.6-0.2,7.8-2.1,10.1,4.2
	c2.9,7.8,8.1,14.8,12.1,22.1c8.4,15,23.4,20.1,38.9,13.1c4.6-2.1,4.5-5.1,2.2-9.2C312.1,281.8,307.7,272.7,302.4,264.2z
	 M264.4,228.2c-6.6,0.4-13.9,2.3-13.7-9.9c0.2-10.9,3.3-14.7,14.1-11.9c7.4,0.4,18.3-3,18.8,9.9C284,229.7,272.8,227.8,264.4,228.2z
	 M-145.4,173.4c-5.5-0.6-11.8,1.9-16.7-2.6c-1.7,0-3.4,0-5.1,0c-4.2,4.1-8.5,2.8-12.7,0c-5.1,0-10.2,0-15.3,0
	c-4.7,3.4-8.2,7-8.2,13.8c0.2,34.1,0.1,68.1-0.2,102.3c-0.1,6.6,1.7,10.6,6.5,12.4c0-0.2,0.1-0.4,0.1-0.6c0.2,0.1,0.5,0.1,0.7,0.2
	c-0.1,0.2-0.1,0.4-0.2,0.6c0.5,0.2,1.1,0.3,1.7,0.4c0.6-0.5,1.4-0.5,2.4,0.3l0,0c0.4,0,0.7,0.1,1.1,0.1c18,0.7,19.4-0.3,19.3-18.2
	c0-2.9,0.4-6,0-8.9c-1.7-10.8,3.8-12.9,13.1-12.1c5.8,0.5,11.8,0.5,17.5-0.4c-0.1-0.7-0.2-1.4-0.3-2.4c0.8,0.9,1.7,1.5,1,2.3
	c4.4-0.7,8.7-1.9,12.8-3.7c17.7-8.1,25.6-26.9,21.3-49.3C-109.9,188.4-124.8,175.7-145.4,173.4z M-186.8,284.4
	c-0.1-1.4-0.1-1.4,3.8-1.1C-184.8,283.8-185.8,284.1-186.8,284.4z M-175.4,292.3c-0.2-0.1-0.4-0.2-0.5-0.3c0.3-0.5,0.5-1,0.8-1.5
	c0.2,0.2,0.5,0.3,0.7,0.5C-174.8,291.4-175.1,291.8-175.4,292.3z M-175.8,255c-0.1,0-0.3-0.5-0.3-0.5c0.6-0.3,1.1-0.7,1.7-1
	c0.1,0.4,0.3,0.7,0.4,1.1C-174.6,254.7-175.2,254.9-175.8,255z M-158.4,229.4c-7.1,0.6-13.4,0.5-13.5-12
	c-0.1-14.7,9.1-11.1,16.7-11.4c8.1-0.3,16.2,0.7,16.1,11.3C-139.3,229-147.9,229.9-158.4,229.4z M-137.3,241.8
	c0.2-1.1,0.5-2.4,0.8-3.6c1.4,0,2.8,0,4.3,0c0.3,1.3,0.6,2.6,1,4.7C-133.3,241.2-135.3,244.4-137.3,241.8z M-131.3,257.7
	c-0.1,0-0.7-0.4-0.6-0.5c0-0.4,0.3-0.7,0.6-1.2c0.4,0.4,0.8,0.7,0.8,0.8C-130.7,257.1-131,257.4-131.3,257.7z M-130.9,256
	c-0.7-1.1-1.4-1.8-1.3-2.1c0.4-0.7,1.1-1.3,1.8-1.9c0.4,0.5,1.2,1.1,1.1,1.5C-129.4,254.2-130.1,254.9-130.9,256z M-118.8,243.9
	c0,0-0.2-0.5-0.3-0.8c0.6-0.1,1.1-0.2,1.7-0.3c0.1,0.2,0.1,0.4,0.2,0.6C-117.8,243.5-118.3,243.7-118.8,243.9z M-115.7,239.5
	c-0.3,0.8-0.5,1.5-1,2.9C-117.7,239.9-117.7,239.9-115.7,239.5z M-116.1,244.3c0-0.2-0.1-0.5-0.1-0.7c0.6-0.1,1.2-0.2,1.8-0.4
	c0,0.2,0.1,0.5,0.1,0.7C-115,244-115.6,244.1-116.1,244.3z M-113.6,243.4c0.1-1.7,0.1-2.7,0.2-4c0.9,0.4,1.5,0.6,2.5,1
	C-111.8,241.2-112.5,242-113.6,243.4z M69,173.4c-5.5-0.6-11.8,1.9-16.7-2.6c-1.7,0-3.4,0-5.1,0c-4.2,4.1-8.5,2.8-12.7,0
	c-5.1,0-10.2,0-15.3,0c-4.7,3.4-8.2,7-8.2,13.8c0.2,34.1,0.1,68.1-0.2,102.3c-0.1,8.8,3,13,12.3,13.3c18,0.7,19.4-0.3,19.3-18.2
	c0-2.9,0.4-6,0-8.9c-1.6-10.8,3.8-12.9,13.1-12.1c10.6,0.9,21.3,0.2,31.1-4.2c17.7-8.1,25.6-26.9,21.3-49.3
	C104.6,188.4,89.6,175.7,69,173.4z M72.3,201.2c-0.1,0.7-0.1,1.4-0.2,2.1c-0.3,0-0.7,0-1,0c0-0.7-0.1-1.4-0.1-2.1
	C71.4,201.2,71.9,201.2,72.3,201.2z M65.7,189.1c-1.2,1.2-1.7,1.8-2.3,2.4c-0.6-0.7-0.8-0.9-0.8-1.1
	C62.4,188.8,63.3,188.6,65.7,189.1z M56.6,193.5c-0.3,0.7-0.4,1.7-0.9,2.1c-0.8,0.5-1.9,0.6-2.8,0.8c-0.1,1-0.2,1.9-0.3,3
	c-2.4-2.4-2.4-2.4-0.6-5.7c1-0.2,1.9-0.5,2.8-0.5C55.4,193.1,56,193.4,56.6,193.5z M48.6,189.7c-0.2-0.3,0.3-1,0.4-1.5
	c0.9,0.3,1.7,0.7,3,1.2C50.3,191,49.3,190.8,48.6,189.7z M52.9,183.3c-0.3,2.4-0.3,2.4-7.9,3C46.8,182.5,50.4,184.6,52.9,183.3z
	 M42.6,181.1c0.1-0.3,1.3-0.4,2.7-0.7c-0.7,1.5-1.1,2.4-1.4,3.2c-0.3,0-0.7,0-1,0C42.8,182.9,42.4,182,42.6,181.1z M30.5,182.7
	c-1.2,2.5-2.3,4.7-3.4,7c-1.8-1.4-3.1-2.5-4.9-3.9C25.4,185.9,26.2,180.8,30.5,182.7z M22.6,174.1c0.6,0.8,1,1.3,1.3,1.9
	c0.1,0.1-0.6,0.7-0.6,0.7c-0.6-0.4-1.1-0.7-1.5-1.2C21.7,175.4,22.2,174.8,22.6,174.1z M38.2,210.4c0,0-0.2-0.6-0.3-0.9
	c0.6-0.2,1.2-0.4,1.9-0.6c0.1,0.3,0.2,0.7,0.2,1C39.4,210,38.8,210.2,38.2,210.4z M46.8,238.8c-0.2-0.2-0.4-0.4-0.7-0.6
	c0.5-1.3,1.2-2.3,3.2-2C48.5,237,47.6,237.9,46.8,238.8z M56.1,229.4c-7.1,0.5-13.5,0.5-13.6-12c0-0.9,0-1.8,0.1-2.5
	c-0.1,0.1-0.2,0.2-0.3,0.4c-1.5-1.6-1.6-2.9,0.5-4.8c0.1,0.5,0.2,1,0.3,1.4c0.7-2.7,2-4.2,3.7-5c-1-0.5-2-1-3-1.4
	c-0.5-0.2-1.3-0.2-1.8,0.1c-1.2,0.6-2.3,1.5-3.5,2.3c-0.4-0.3-1-0.7-2-1.5c0.1,1.3,0.2,2.1,0.2,3c-1,0.4-2,0.8-3.3,1.3
	c0.3,0.8,0.5,1.5,0.6,1.9c-1,2-2,3.8-2.9,5.6c-1.7-1.2-3.5-2.4-5.6-3.9c0.1-0.3,0.4-1.1,0.6-1.9c-0.9-1.9-3.6-2.9-2.5-6
	c0.7-1.8-1.8-1.5-3-2.1c2-2.2,3.2-2.2,6.3,0c0.4-0.8,0.7-1.5,1.2-2.4c2.3,0.2,4.6,0.5,7,1.5c2.9,1.2,6.3,1.6,9.7-0.4
	c-0.5-0.7-0.9-1.3-1.5-2.1c1.1-1.1,2.2-2.3,3.4-3.6c1.3,0.8,2.4,1.6,4.6,3c-1.3,0.6-2.2,1.1-3.1,1.6c0.2,1.3,0.4,2.3,0.5,3.2
	c0.6-0.2,1.2-0.5,1.9-0.8c0.3,1-0.1,1.6-0.6,2c2.8-0.3,6.1,0.2,9.2,0.1c8.1-0.3,16.2,0.7,16.1,11.3C75.3,229,66.5,230,56.1,229.4z
	 M74.5,207.8c-0.2-1.5-0.4-2.7-0.6-4.1c1.3-0.6,2.1-0.3,2.4,1.2C76.6,206.2,77.4,207.7,74.5,207.8z M98.7,198.4
	c-0.2-0.6-0.4-1.1-0.6-1.7c0.2-0.1,0.5-0.1,0.7-0.2c0.2,0.5,0.4,1,0.5,1.5C99.4,198.1,98.9,198.3,98.7,198.4z M110.9,129.2
	c-10.7,3.3-22.3,3-27.8-7.9c-7.2-14.5-6.2-30.7,1-45.2c6.1-12.4,18.3-9.6,29.2-7.7c5.7,1,8.5-0.6,9.4-6c-0.3,0.1-0.7,0.3-1,0.4
	c-0.1,0-0.4-0.8-0.6-1.2c0.6-0.3,1.2-0.5,1.8-0.8c0-0.1,0-0.1,0-0.2c1.6-20.1,0.8-22.1-15.6-28.9c-6.7,0-13.6,0-20.3,0
	c-0.4,2.9-2.8,2.5-4.7,3.1c-20.6,6-32.5,19.7-36.7,40.8c-1.1,5.2-1.4,10.5-1.5,15.8c0,0.3,0,0.6,0,0.9c0.1,5.4,0.1,10.5-0.2,15.8
	c0,0.3,0,0.6,0,0.9c-0.1,26.3,17.8,53.7,49.5,54.2c-0.2-0.3-0.4-0.6-0.6-0.9c1.1-1.1,2.2-2.3,3.4-3.6c1.3,0.8,2.4,1.6,4.6,3
	c-1.1,0.5-1.9,0.9-2.7,1.4c1.7-0.1,3.4-0.3,5.1-0.5c20.8-3.1,20.7-1.9,21.5-23.4C124.9,127.7,120.9,126.1,110.9,129.2z M50.2,104.7
	c-0.1-0.3-0.2-0.5-0.4-0.8c0.6-0.2,1.2-0.5,1.8-0.7c0.1,0.3,0.3,0.6,0.4,0.9C51.4,104.3,50.8,104.5,50.2,104.7z M51.5,64
	c-0.1,0-0.8-0.8-0.7-1c0.3-0.5,0.7-0.9,1.2-1.1c0.2-0.1,0.7,0.4,1.4,0.9C52.6,63.3,52.1,63.7,51.5,64z M57.1,136
	c-0.5,0.1-1.1-0.1-1.6-0.2c0.3-0.6,0.6-1.3,1.1-1.6c0.4-0.3,1.1,0,1.7,0.1c0.1,0.3,0.1,0.5,0.2,0.8C58,135.4,57.6,135.8,57.1,136z
	 M70.9,137.3c-0.1-0.1,0.4-0.7,0.8-1.4c0.6,0.8,1,1.3,1.3,1.9c0.1,0.1-0.6,0.7-0.6,0.7C71.9,138.1,71.3,137.8,70.9,137.3z
	 M76.3,151.5c-1.8-1.4-3.1-2.5-4.9-3.9c3.3,0.1,4.1-5,8.4-3.1C78.5,146.9,77.4,149.1,76.3,151.5z M92.1,145.5
	c-0.1-0.9-0.4-1.8-0.2-2.5c0.1-0.3,1.3-0.4,2.7-0.7c-0.7,1.5-1.1,2.4-1.4,3.2C92.8,145.4,92.5,145.4,92.1,145.5z M94.2,148
	c1.8-3.8,5.3-1.7,7.9-3C101.7,147.3,101.7,147.3,94.2,148z M97.8,151.4c-0.2-0.3,0.3-1,0.4-1.5c0.9,0.3,1.7,0.7,3,1.2
	C99.4,152.8,98.5,152.6,97.8,151.4z M104.8,157.4c-0.8,0.5-1.9,0.6-2.8,0.8c-0.1,1-0.2,1.9-0.3,3c-2.4-2.4-2.4-2.4-0.6-5.7
	c1-0.2,1.9-0.5,2.8-0.5c0.6,0,1.2,0.2,1.9,0.3C105.6,156,105.5,157,104.8,157.4z M112.6,153.3c-0.6-0.7-0.8-0.9-0.8-1.1
	c-0.2-1.7,0.7-1.9,3.1-1.3C113.7,152.1,113.2,152.7,112.6,153.3z M234.4,147.9c-9.5-17.8-18.6-35.8-28.9-53.3
	c-3.7-6.3-2.8-10.4,1.3-15.5c8.5-10.6,16.8-21.1,24.6-32.2c5.9-8.6,3.7-11.6-6.4-12.6c-17.8-1.8-32.4,1.6-40.5,20
	c-2.4,5.6-7.3,10.2-13.4,18.2c0-8.9,0-13.8,0-18.8c0-17.9-3-20.4-20.6-18.6c-9.3,0.9-14,4.6-12.8,14.5c0.6,4.6,0.2,9.3,0.2,14
	c0.1,29.1-0.2,58.2,2.5,87.2c0.5,5,0.6,8.9,6.7,10.3c19.5,4.5,25.7-0.4,24.8-20.2c-0.4-9.2-1.7-18.6,8.3-24.6
	c4.6,8.5,9.4,16.9,13.7,25.6c10,19.9,10.9,20.5,33.1,19.3C238.1,160.5,239.7,157.8,234.4,147.9z M147.9,160.1
	c-0.2-0.6-0.4-1.1-0.6-1.7c0.2-0.1,0.5-0.1,0.7-0.2c0.2,0.5,0.4,1,0.5,1.5C148.5,159.8,148.1,160,147.9,160.1z M-114.3,110.8
	c4-3,7.3-7.2,10-12.2c0.2-0.3,0.3-0.6,0.4-0.9c0-1.9,1-2.9,1.6-3.6c0.1-0.3,0.2-0.6,0.4-0.9c3.8-10.4,4.4-22.4,0.4-31.9
	c-6.7-15.6-18.3-27-36.8-28.4c-2.5-0.2-6.1,1.7-7.4-2.5c-1.7,0-3.4,0-5.1,0c-1.4,0.9-2.7,1.6-4.1,2.1c0.3,0.2,0.5,0.6,0.6,1.3
	c0.3,1.3,1,2.8-1.7,2.9c-0.2-1.3-0.4-2.5-0.6-3.7c-4,0.9-8,0-12-2.6c-4.5,0-9.1,0-13.7,0c0,0-0.1,0-0.1,0.1c0.2,1.3,0.4,2.3,0.5,3.2
	c0.7-0.3,1.3-0.5,2.1-0.8c0.6,2.3-1.8,2.1-2.5,3.4c-1.4-0.7-2.8-1.4-4.3-2c-0.5-0.2-1.3-0.2-1.8,0.1c-1.2,0.6-2.3,1.5-3.5,2.3
	c-0.4-0.3-1-0.7-2-1.5c0.1,1.3,0.2,2.1,0.2,3c-1,0.4-2,0.8-3.3,1.3c0.3,0.8,0.5,1.5,0.6,1.9c-1,2-2,3.8-2.9,5.6
	c-0.8-0.6-1.7-1.2-2.6-1.8c-0.2,34.2-1,68.6-1.3,102.9c-0.1,4.9,1.1,10,7.8,11.4c19.7,4.2,27-1.5,26.8-21.6c0-3.4-0.3-6.7,0-10.2
	c0.2-2.9-1.8-7.5,3.5-7.8c3.6-0.2,7.8-2.1,10.1,4.2c2.9,7.8,8.1,14.8,12.1,22.1c8.4,15,23.4,20.1,38.9,13.1c4.6-2.1,4.5-5.1,2.2-9.2
	c-5-8.8-9.6-17.8-14.9-26.4C-120.5,118.1-120.3,115.3-114.3,110.8z M-192.4,39.3c0,0-0.2-0.6-0.3-0.9c0.6-0.2,1.2-0.4,1.9-0.6
	c0.1,0.3,0.2,0.7,0.2,1C-191.2,38.9-191.8,39.1-192.4,39.3z M-188.4,44.1c-1.5-1.6-1.6-2.9,0.5-4.8
	C-187.4,41.3-186.9,42.7-188.4,44.1z M-183.9,67.7c-0.2-0.2-0.4-0.4-0.7-0.6c0.5-1.3,1.2-2.3,3.2-2
	C-182.2,65.9-183.1,66.8-183.9,67.7z M-182,42.1c-0.9-2-1.2-3,0.2-3.4c0.4-0.1,1,0.4,1.5,0.6C-180.7,40.1-181.2,40.9-182,42.1z
	 M-176.8,57.9c-0.4-0.7-0.9-1.1-0.9-1.4c0.1-0.4,0.5-0.9,0.9-1c0.2-0.1,1,0.5,1,0.6C-175.9,56.6-176.3,57-176.8,57.9z M-173.9,42.3
	c-0.6-2.9-2.8-2.7-4.9-3c1.5-1.3,2.8-2.4,4-3.5C-175,37.7-170.7,38.9-173.9,42.3z M-170.7,40c1.9-1,2.8,0.4,3.9,1
	c0.2,0.1,0,1.6-0.4,1.8c-0.8,0.4-1.4,0.2-0.9-1.1C-168,41.6-169.6,40.7-170.7,40z M-155,87.7c-6.6,0.4-13.8,2.1-13.7-10
	c0.1-11.2,3.9-14,14-12.1c7.7,0.6,18.6-2.8,18.9,10.2C-135.3,89.2-146.6,87.3-155,87.7z M523.7,314.8c-10.4,1.4-5.7,11.2-6.2,17.6
	c-1.2,14.1,1.3,28.4-1.5,42.5c-1-0.4-2.6-0.6-2.7-1.2c-4.6-16.2-12.6-31.1-19.1-46.6c-5.7-13.6-17.1-16.7-30.7-10.2
	c-5.3,2.5-10.6,2.2-10.6,10.6c-0.2,33.3-0.8,66.5-1.8,99.9c-0.3,12.4,7.4,12,15.9,11.9c8.2-0.1,16.5,1.3,16.1-11.5
	c-0.3-8.4-0.3-16.8-0.3-25.2c-0.2,0.2-0.4,0.5-0.7,0.7c-0.7,0.7-1.3,1.4-2,2.1c-0.1-0.1-0.2-0.2-0.4-0.3c0.9-2.1,1.9-4.1,2.9-6.4
	l0.1,0.1c0-6.4,0.1-13,0.1-19.4c3.5,0.5,3.8,2.6,4.4,4.7c4.5,15.7,9.3,31.4,16,46.4c1.5,3.3,2.4,7,6.7,8.5
	c23.7,7.8,36.5-1,37.4-25.8c0.2-5.9-0.1-11.9,0.6-17.7c0.4-3.3-2.4-7.8,2.5-10c0-20.3,0-40.7,0-61
	C545.4,310.9,533.5,313.5,523.7,314.8z M468.7,405.7c-0.8,0-2.1-0.1-3.3-0.2c-0.1-3,0-3,2.2-2.5c1.1,0.3,2.3,0.5,3.6,0.7
	c0.2,1.8,0.3,3.5,0.5,5.3C469.8,408.7,470.2,406.7,468.7,405.7z M476.2,412.9c-1.2-2-1.2-2,1.2-3.2
	C478.3,411.3,477.7,412.2,476.2,412.9z M478.3,418.7c-1-1.6-0.4-3,0.7-4.5C480.9,417.2,480.9,417.2,478.3,418.7z M481,399.8
	c-0.2,0.5-0.6,0.9-1.2,1.9c-1.5-2.2-2.8-4-4.3-6c0.2-0.7,0.6-1.8,0.9-2.9c2.4,1.1,2.7,1.9,2.4,5.5c0.9,0,1.5,0,2.3,0
	C481.1,398.9,481.2,399.4,481,399.8z M504.9,423.9c-0.1-0.2-0.2-0.4-0.3-0.7c0.5-0.2,1.1-0.5,1.6-0.7c0.1,0.2,0.2,0.5,0.3,0.7
	C506,423.4,505.5,423.7,504.9,423.9z M513.5,433.4c-0.5,0.3-1.4,0.2-1.9-0.2c-0.9-0.6-1.7-1.4-2.7-2.3c1.4-0.9,2.6-1.6,4.1-2.6
	c0.3,1.4,0.7,2.3,0.8,3.3C513.9,432.2,513.8,433.2,513.5,433.4z M515.8,378.1c0.1-0.7,0.2-1.3,0.3-2c0.1,0.7,0.2,1.4,0.3,2.1
	C516.1,378.1,515.8,378.1,515.8,378.1z M519.2,434.4c-0.2,0-0.4-0.1-0.6-0.1c0.1-0.6,0.3-1.2,0.4-1.9c0.2,0.1,0.5,0.1,0.7,0.2
	C519.5,433.2,519.4,433.8,519.2,434.4z M521.6,440.5c-0.3-1.9-0.3-1.9,1.8-1.7C522.7,439.5,522.2,440,521.6,440.5z M522.4,436.5
	c-0.6-0.2-1.2-0.3-1.6-0.6c-0.3-0.3-0.5-1.1-0.3-1.4c0.7-1.1,1.7-1.6,3.1-0.5C523.3,434.7,522.9,435.5,522.4,436.5z M529,418.3
	c-0.1-1.4-0.1-1.4,3.8-1.1C531.1,417.7,530.1,418,529,418.3z M540.4,426.2c-0.2-0.1-0.4-0.2-0.5-0.3c0.3-0.5,0.5-1,0.8-1.5
	c0.2,0.2,0.5,0.3,0.7,0.5C541.1,425.3,540.7,425.7,540.4,426.2z M540,388.9c-0.1,0-0.3-0.5-0.3-0.5c0.6-0.3,1.1-0.7,1.7-1
	c0.1,0.4,0.3,0.7,0.4,1.1C541.3,388.6,540.7,388.8,540,388.9z M426.1,311.7c-6.7,0-13.6,0-20.3,0c-4.4,5-4.8,11.2-4.7,17.5
	c0.3,20.7,0.6,41.4,0.4,62.1c-0.1,12.5-5.5,17.6-16.5,17.2c-11.4-0.4-15.1-7.3-15.1-17.7c-0.1-20.2-0.1-40.6-0.7-60.8
	c-0.3-9.9-3.5-15-11.7-18.4c-4.2,0-8.5,0-12.7,0c-8.3,3-10.2,9.2-9.8,17.5c1,23.3,1.3,46.5,2.1,69.8c0.8,24.1,12.5,37.8,35.8,41.8
	c10.5,1.7,21.1,1.6,31.6-0.2c17.2-3,28.2-15.5,29.6-33.1c2.1-26.2,1.9-52.3,2.1-78.5C436.1,320.8,434.2,314.6,426.1,311.7z
	 M-134.1,367c-1-0.5-2-1-2.9-1.4c-0.4,0.1-0.9,0.2-1.3,0.3c-0.1,0-0.3-0.5-0.3-0.5c0.1-0.1,0.3-0.2,0.4-0.2c-6.4-2.7-13.2-4-19.7-6
	c-2.1-0.6-5.4-1.2-5.3-4.5c0.1-3.8,3.2-4.4,6.2-4.7c9-1.1,17.6,0.1,26.2,2.7c1.7,1.6,3.5,4.4,5.1-0.1c1.4-0.3,2.7-0.6,2.6-2.5
	c0.6-0.3,1.8-0.4,1.8-0.8c0.2-1.5-0.9-1.6-2-1.3l-0.4-0.2c-0.1-3.5,1.5-7-0.4-10.5c3.8-16.2-8.3-20.4-19.3-25.4
	c-8.5,0-16.9,0-25.5,0c-0.5,0.6-0.9,1.6-1.5,1.8c-20,5.8-30.4,18.4-31,37.7c-0.3,10.1,1.4,18.1,5.5,24.6c0-0.1,0.1-0.1,0.1-0.2
	c0.7,0.8,1.3,1.4,1.8,2.1c-0.1,0.1-0.2,0.2-0.4,0.4c4.8,6.3,12.3,11,22.8,14.3c4.8,1.5,9.8,2.5,14.6,3.8c3.3,0.9,7.4,2.2,7.2,5.9
	c-0.2,3.4-4,5.2-7.7,5.6c-2.4,0.2-4.8,0.4-7.2,0.5c0,0.1,0,0.2,0.1,0.3c0.1,0.6,0,1.6-0.4,1.7c-0.5,0.3-1.4,0.2-1.9-0.2
	c-0.8-0.5-1.5-1.2-2.3-1.9c-3.4-0.1-6.8-0.6-10.2-1.4c-0.1,0.2-0.3,0.4-0.4,0.6c-0.2-0.2-0.4-0.4-0.7-0.6c0.1-0.1,0.1-0.1,0.2-0.2
	c-4.2-1.1-8.4-2.9-12.3-5.7c-5.9-4.1-9.5-3.3-10,4.2c-0.4,5.5-0.6,11.1-0.7,16.5c0.5,0.3,0.8,0.9,1.1,1.8c-0.5,0-0.8,0-1.2,0
	c-0.1,1.9-0.1,3.8-0.1,5.7c-0.2,7.3,3.1,11.7,10.8,12.9c15.4,2.4,30.8,3.1,46.1,0.5c0.2-0.1,0.4-0.2,0.6-0.3c0,0.1,0,0.1,0,0.2
	c0.8-0.1,1.6-0.3,2.4-0.5c1.1-0.2,2.2-0.5,3.2-0.7c-0.4-1-0.5-2.1-0.3-3.2c0.5,0.8,0.9,1.5,1.3,2.1c1.4-0.1,2.1-0.2,2.7,0
	c0.9-0.3,1.7-0.6,2.5-1c-0.7-0.1-1.3-0.1-2-0.2c0-0.8,0-1.5,0-2.7c-0.8,1-1.4,1.7-1.9,2.4c-2.1-0.4-2.5-1.8-2.3-3.7
	c-3.1,0.9-2.6,4-3.9,6c-0.8,0-1.6,0-2.8,0c1-2.1-1.8-3.9,0.2-6.2c-1-0.5-1.7-1.1-2.4-1.1c-3.6,0-3.6,0.1-6.1-1.1
	c0-0.3-0.1-0.7-0.1-1c0-0.3,0.1-0.7,0.2-1.4c1,0.5,1.8,0.9,2.7,1.3c1-0.5-0.2-3,2.2-2.3c0.1,0.6,0.1,1.3,0.2,1.9
	c1.7,0.5,3.4,1,5,1.5c0.5-0.8,0.9-1.4,1.3-2c0.2,0,0.4,0.1,0.6,0.1c0,1,0,2,0,3.1c1.5-1.4,1.5-1.4,0.5-4c1.3-0.4,2.4-0.8,3.9-1.3
	c0.5,0.2,1.4,0.6,2.5,1.1c-0.1,1.4-0.2,2.9-0.2,4.5c1.4,1.3,3,2.7,4.5,4.1c0.8-0.4,1.6-0.8,2.3-1.2c-0.4-0.5-0.5-1.3-0.5-1.9
	c0-0.3,0.9-0.9,1.3-0.8c0.9,0.1,1.8,0.3,2.7,0.5c0.4-0.3,0.8-0.6,1.2-0.9c-0.4-0.1-0.7-0.2-1.1-0.3c0.4-0.9,0.6-1.6,1-2.4
	c0.5,0.6,0.9,1.1,1.4,1.6c3.9-3.5,6.7-8,8.6-13.2c-0.7,0.2-1.4,0.4-2.1,0.3c-0.4,0-0.7-1-1.1-1.5c0.4-0.2,1-0.8,1.3-0.7
	c1.1,0.5,0.8-0.4,1-0.8c0.4-0.7,1-1.3,1.7-2.1c0.1,0.2,0.2,0.4,0.4,0.7c0.3-1.3,0.6-2.6,0.7-4C-110.4,390.2-117.4,375.9-134.1,367z
	 M-165.2,430.9c-0.5-0.4-1-0.9-1.6-1.3c0.2-0.2,0.4-0.5,0.6-0.7c0.6,0.1,1.3,0.1,2.3,0.2C-164.5,429.9-164.9,430.4-165.2,430.9z
	 M-160.5,427c-0.6,0.8-0.6,0.7-2.5,1c0.9-0.8,1.5-1.3,2.3-1.9C-160.6,426.6-160.4,426.9-160.5,427z M-159.3,411.3
	c-0.2,0-0.4-0.1-0.6-0.1c0.1-0.6,0.3-1.2,0.4-1.9c0.2,0.1,0.5,0.1,0.7,0.2C-159,410.1-159.1,410.7-159.3,411.3z M-156.9,417.3
	c-0.3-1.9-0.3-1.9,1.8-1.7C-155.8,416.3-156.3,416.8-156.9,417.3z M-156.1,413.4c-0.6-0.2-1.2-0.3-1.6-0.6c-0.3-0.3-0.5-1.1-0.3-1.4
	c0.7-1.1,1.7-1.6,3.1-0.5C-155.2,411.6-155.6,412.4-156.1,413.4z M-149.4,395.2c-0.1-1.4-0.1-1.4,3.8-1.1
	C-147.4,394.6-148.4,394.9-149.4,395.2z M-141.8,420.1c-0.3-1.5-0.5-2.8-0.7-4.1c0.3,0,0.6-0.1,1-0.1
	C-141.6,417.2-139.5,418.4-141.8,420.1z M-138.1,403c-0.2-0.1-0.4-0.2-0.5-0.3c0.3-0.5,0.5-1,0.8-1.5c0.2,0.2,0.5,0.3,0.7,0.5
	C-137.4,402.1-137.8,402.5-138.1,403z M-135.6,433c1.1-0.3,2-0.6,2.8-0.9C-133.1,433.8-133.8,435.1-135.6,433z M-126.7,417.9
	c0.5,0.8,1,1.6,1.4,2.5c-0.1,0.2-0.3,0.4-0.4,0.6c-0.6-0.2-1.3-0.3-1.7-0.7C-128,419.4-128,418.6-126.7,417.9z M-126.8,426.8
	c-0.1-1.1-0.1-1.9-0.3-3.4c1,0.9,1.6,1.5,2.6,2.4C-125.4,426.3-126,426.5-126.8,426.8z M-125.3,376.8c-0.3-0.2-0.4-0.6-0.6-1
	c0.3-0.1,0.6-0.4,0.9-0.3c0.2,0.1,0.4,0.5,0.7,0.8C-124.8,376.6-125.2,376.9-125.3,376.8z M-117.5,423.4c-1.9,0.2-2.6-0.6-2.7-1.9
	c0-0.4,0.6-0.8,1-1.2c0.2,0.4,0.3,0.7,0.5,1C-118.3,422-118,422.5-117.5,423.4z M-116.9,390.7c0.4,0,0.7,0.4,1.2,0.6
	c-0.4,0.4-0.8,0.8-0.9,0.8c-0.3-0.1-0.6-0.5-0.9-0.8C-117.3,391.1-117.1,390.7-116.9,390.7z M-114.7,398.8c-0.8,0.8-1.5,1.4-2.3,2.2
	C-117.6,398.3-117.6,398.3-114.7,398.8z M-121.1,389.3c0.2,0,0.7,0.5,0.6,0.7c-0.2,1.1-0.8,1.6-2,1
	C-122.8,389.9-122.3,389.3-121.1,389.3z M-119.3,406c4.3,1,5.2,4.4,1.8,8.4c-1.8-0.9-3.7-1.9-5.4-2.8
	C-121.7,409.8-120.5,407.9-119.3,406z M207.2,312.5c-0.9-0.1-1.6-1.5-2.4-2.3c-0.8,0-1.7,0-2.5,0c-0.4,2-1.8,2.5-3.6,2.5
	c-14.8,0.1-29.6,0.2-44.5,0.2c-8.6,0-16.2-0.1-16.1,12.1c0.1,8,0.2,13,1.3,16.1c0.7-0.2,1.2-0.4,1.8-0.6c-0.2,1-0.6,1.9-1.3,1.9
	c1,1.9,2.5,2.8,4.9,3.3c-0.2-0.1-0.3-0.2-0.5-0.3c-0.5-0.4-0.6-1.4-0.6-2.1c0-0.3,0.9-0.9,1.3-0.8c1.6,0.2,3.1,0.6,4.4,0.9
	c0.2,1,0.5,1.9,0.5,2.7c1,0,2.2,0,3.4-0.1c9.2-0.4,12.8,2.2,12.6,11.9c-0.3,22.9,0.8,45.7,0.4,68.6c-0.2,13.4,7.4,13.4,17.3,13.5
	c10.2,0.1,16.3-2.1,16.1-13.9c-0.5-21.5,0.7-43.3-1.1-64.7c-1.1-12.9,1.3-18,14.6-15.5c5.4,1,9.8-0.3,11.4-6.8
	C228.2,324.4,221.9,314.5,207.2,312.5z M147.1,326.3c0.5,0.8,1,1.6,1.4,2.5c-0.1,0.2-0.3,0.4-0.4,0.6c-0.6-0.2-1.3-0.3-1.7-0.7
	C145.8,327.8,145.8,327,147.1,326.3z M146.8,331.7c1,0.9,1.6,1.5,2.6,2.4c-1,0.4-1.5,0.7-2.3,1C147,334.2,146.9,333.2,146.8,331.7z
	 M147.7,341.8c0.4-0.9,0.6-1.6,1-2.4c0.9,1,1.6,1.9,2.9,3.5C149.9,342.4,148.9,342.1,147.7,341.8z M150.8,320
	c1.2-1.9,2.4-3.6,3.7-5.5c4.3,1,5.2,4.4,1.8,8.4C154.5,321.9,152.6,320.9,150.8,320z M153.7,329.9c0-0.4,0.6-0.8,1-1.2
	c0.2,0.4,0.3,0.7,0.5,1c0.3,0.6,0.7,1.1,1.2,2C154.5,332,153.8,331.2,153.7,329.9z M162.2,340.6c-0.2-2.2-0.3-3.5-0.5-4.9
	C163.5,337.1,163.6,337.8,162.2,340.6z M162.6,328.8c-0.4,0.7-1.4,0.9-2.2,1.4v0.1l-0.1-0.1l0.1,0.1h-0.1c-0.1,2.4-0.2,2.4-2.3,2.2
	c0-1.6,0.9-2.1,2.3-2.2v-0.1l0,0c-0.4-0.8-0.7-1.6-1.1-2.5c-0.8,0.2-1.8,0.5-2.7,0.4c-0.4,0-0.7-1-1.1-1.5c0.4-0.2,1-0.8,1.3-0.7
	c1.1,0.5,0.8-0.4,1-0.8c0.4-0.7,1-1.3,1.7-2.1c0.8,1.4,1.3,2.4,2.3,4.2c0.1-1.3,0.2-2,0.2-2.6c0-0.5-0.1-1.3,0.2-1.4
	c0.5-0.2,1.1-0.1,1.7-0.1c0.7,0,1.4,0,2.2,0C167,326,163.8,326.9,162.6,328.8z M-1,326.2c0-6.9-3-10.1-9.7-10.5
	c-4.6-0.3-9.3-0.7-13.9-0.9c-6.6-0.2-10.3,2.4-9.9,9.8c0.5,9.6-2.4,19.2-0.2,28.9c0.6,2.6,1.1,5.3-3.5,6.3
	c-20.7,4.6-27.5-0.5-27.4-21.8c0.2-24.3,0-24.1-23.5-23.9c-8.4,0-11.4,2.9-11.3,11c0.2,17.3,0.1,34.6,0.1,51.9c0.3,0,0.7,0,1,0
	c0,0.8,0,1.7,0,2.5c0.2-0.4,0.5-0.7,0.7-1c0.2,0.2,0.5,0.4,0.7,0.5c-0.3,0.6-0.2,1.6-1.4,1.8c0,15.2,0.3,30.3-0.2,45.5
	c-0.2,6.2,0.4,12,7.1,12.2c8.9,0.2,18.3,5.8,26.5-1.5c1.4-1.3,1.1-4.7,1.1-7.2c0-9.8-0.3-19.4-0.2-29.2c0-2.7-1.4-7.3,2.1-7.7
	c8.8-0.7,18.2-1.8,26.5,0.5c5.5,1.5,1.7,9.7,2.2,14.8c0.6,5.4,0.4,11,0.1,16.5c-0.4,8.6,0.6,14.8,11.8,14.7
	c18.7-0.1,21-0.8,21.1-14.4C-0.7,392.1-1.1,359.2-1,326.2z M-99.8,352.6c0.2-1.1,0.5-2.4,0.8-3.6c1.4,0,2.8,0,4.3,0
	c0.3,1.3,0.6,2.6,1,4.7C-96,352-98,355.1-99.8,352.6z M-94,368.4c-0.1,0-0.7-0.4-0.6-0.5c0-0.4,0.3-0.7,0.6-1.2
	c0.4,0.4,0.8,0.7,0.8,0.8C-93.4,367.9-93.7,368.2-94,368.4z M-93.5,366.8c-0.7-1.1-1.4-1.8-1.3-2.1c0.4-0.7,1.1-1.3,1.8-1.9
	c0.4,0.5,1.2,1.1,1.1,1.5C-92.1,365-92.8,365.7-93.5,366.8z M-88.2,376.7c-0.2-0.2-0.5-0.4-0.7-0.6c0.4-0.5,0.8-0.9,1.2-1.4
	c0.2,0.1,0.4,0.3,0.6,0.4C-87.5,375.7-87.8,376.2-88.2,376.7z M-80.1,353.5c0.1,0.2,0.1,0.4,0.2,0.6c-0.5,0.2-1,0.4-1.5,0.5
	c0,0-0.2-0.5-0.3-0.8C-81.2,353.7-80.7,353.6-80.1,353.5z M-80.1,380.4c-0.7-0.1-1.5-0.3-2.2-0.4c0.1-0.4,0.2-0.7,0.3-1.1
	c0.7,0.2,1.4,0.4,2.1,0.7C-80,379.8-80,380.1-80.1,380.4z M-81.2,376.7v0.1h-0.1c-0.5,1.2-1.4,1.3-2.4,0.6c-0.9-0.7-0.9-1.2,0-2.7
	c1.3,0.1,0.7,2.6,2.4,2.2C-81.3,376.8-81.3,376.8-81.2,376.7L-81.2,376.7c-0.1-1.1-0.1-2.2,1.7-2.9
	C-79.9,375.2-79.9,376.3-81.2,376.7z M-78.4,350.3c-0.3,0.8-0.5,1.5-1,2.9C-80.3,350.7-80.3,350.7-78.4,350.3z M-78.8,355
	c0-0.2-0.1-0.5-0.1-0.7c0.6-0.1,1.2-0.2,1.8-0.4c0,0.2,0.1,0.5,0.1,0.7C-77.6,354.7-78.2,354.8-78.8,355z M-76.1,354.1
	c0.1-1.7,0.1-2.7,0.2-4c0.9,0.4,1.5,0.6,2.5,1C-74.4,352-75,352.8-76.1,354.1z M323,398.5c0.1,0,0.2,0,0.3,0
	c-0.9-11.8,1.9-25.8-3.6-34.6c-6.7-10.9-21.8-2.8-33.2-3.5c-17.8-1-18.3,1-17.2,18.5c0.7,10.8,5.9,12.7,14.8,11.4
	c5.9-0.9,7.1,2.3,6.7,7.4c-0.1,1.6-0.1,3.1-0.4,4.4c1.2,0.7,2,1.2,2.9,1.9c-0.8,0.5-1.2,0.7-1.8,1.1c-0.4-0.8-0.7-1.5-1.2-2.6
	c-0.5,1.9-1.8,3.3-5.6,3.6c-15.7,1.4-25.4-5.7-26.3-21.5c-0.4-7.1,0.2-14.4,1-21.4c1.4-12.8,9.2-18.2,21.6-17.9
	c9.8,0.2,19.4,0.1,29.2,0.5c10.5,0.4,11.4-6.2,11-14.2c-0.4-8,1.5-17.2-11.3-16.7c-13.4,0.4-26.9,0.3-40.3,1.2
	c-22.1,1.5-34.5,11.8-41.7,32.6c-3.4,10-2.8,20-2.4,30.1c1.2,33.4,10.3,64.2,58.9,60.8c2.5-0.2,5,0.1,7.7,0
	c29.5-1.3,34.1,6.8,30.9-30.9C322.8,405.1,323,401.8,323,398.5z M258.4,432.4c-0.5-0.1-1-1-1.1-1.6c-0.1-0.3,0.9-1,1.2-1
	c0.6,0.1,1.1,0.7,2,1.4C259.5,431.9,258.9,432.6,258.4,432.4z M309.2,438.9c-0.1-0.3-0.2-0.5-0.4-0.8c0.6-0.2,1.2-0.5,1.8-0.7
	c0.1,0.3,0.3,0.6,0.4,0.9C310.4,438.5,309.8,438.7,309.2,438.9z M310.5,398.2c-0.1,0-0.8-0.8-0.7-1c0.3-0.5,0.7-0.9,1.2-1.1
	c0.2-0.1,0.7,0.4,1.4,0.9C311.6,397.5,311.1,397.9,310.5,398.2z"/>
<path class="st1" d="M-21,206.3c-0.3-2.8-3.3-5.8-4.5-9c-0.1-0.2-0.2-0.4-0.3-0.5c-0.6-1.2-1.2-2.4-1.8-3.6
	c-0.1-0.2-0.2-0.4-0.3-0.5c-1-0.9-2.1-2-3.2-3.1c-0.3,0.3-0.5,0.7-0.6,1.3c-0.2-0.1-0.5-0.2-0.7-0.2c-0.3-0.8-0.7-1.6-1-2.4
	c0.3-0.1,0.6-0.2,0.8-0.2c-2-2.4-3.4-5.2-2.8-8.7c-2,0-5,0-7.5-0.4c-0.2,0-0.4,0-0.6,0c-11,0-28.3,0-28.3,0s-1.7,3.3-4.2,8.5
	c0.3,0.3,0.5,0.8,0.6,1.5c2,0,3.8,0,6.2,0c-0.5,0.9-0.6,1.5-0.9,1.6c-2.8,0.4-5.7,0.9-8.5,1.8c-2.1,4.1-4.4,8.9-6.9,13.8
	c0.1,0.3,0.1,0.7,0.2,1c-0.2,0-0.4-0.1-0.7-0.1c-4.4,8.9-9.2,18.1-12.7,25.2c-0.3,0.7-0.7,1.4-1,2c-3,6.4-4,13.5-4.6,20.3
	c0,0.8,0,1.6,0,2.4c0,9,0,20.8,0,29.5c0,0.2,0,0.4,0,0.5c-1.4,11.1,6.6,10.1,15.4,11.1c0.2,0,0.5,0,0.7,0c9.3,0,19,0,19,0l16.2-23.2
	l15.7,23.2c0,0,11.4,0,21.2,0c0.2,0,0.5,0,0.7,0c4.2,0.9,8.3-3.1,12.7-0.5c0,0,0-0.1,0-0.2c0.6-3.3,0.6-7.3,0.6-10.6
	c0-0.2,0-0.4,0-0.6c0-16,0-42.4,0-42.4s-9.8-19.3-18.5-36.9C-20.8,206.7-20.9,206.5-21,206.3z M-31.8,203.5c1.3,0.5,1,1.5,0,3.4
	c-0.8-1.4-1.2-2.1-1.6-2.8C-32.9,203.8-32.2,203.3-31.8,203.5z M-35,199c0.4,0,0.8,0,1.1,0c-0.1,0.9-0.1,1.8-0.2,3.1
	C-35.8,201-35.8,200-35,199z M-41.5,186.1c0.1,0.3,0.2,0.6,0.3,1c-0.7,0.1-1.3,0.3-2,0.4l-0.2-0.6
	C-42.8,186.6-42.2,186.3-41.5,186.1z M-61.9,183.4c0.3,0.2,0.5,0.5,0.8,0.7c-0.6,0.6-1.2,1.2-1.8,1.8c-0.2-0.2-0.4-0.3-0.6-0.5
	C-62.9,184.8-62.4,184.1-61.9,183.4z M-73,210.4c0.7,1.6,1.3,2.8,1.9,4.1c-0.2,0.2-0.4,0.4-0.7,0.6c-1-0.7-2-1.4-3.2-2.2
	C-74.3,212-73.8,211.4-73,210.4z M-83.4,203.4c-0.2-0.3,0.5-1.1,0.7-1.7c0.2,0.1,0.5,0.1,0.7,0.2c0.2,0.9,0.5,1.7,1,3.4
	C-82.2,204.3-83,204-83.4,203.4z M-44.3,240.8c-1.8-0.4-1.5-2.4-1.7-4c1.6,0.3,2.8,0.5,4.3,0.8C-42.4,239.1-42.3,241.2-44.3,240.8z
	 M-81.3,275.2h-0.2v-25.9c0,0,11.5-22.9,18.5-36.7c0.1-0.2,0.2-0.4,0.3-0.5c2.1-8.6,6.1-12.6,14.2-10.6c0,0,0,1,0.3,2.1
	c0.1,0.3,0.3,0.5,0.4,0.8c2.2,4.4,6.6,13.3,6.6,13.3L-81.3,275.2z M-25.1,275.2L-25.1,275.2c-0.1,0-2.7-3.9-5.7-8.4
	c-0.1-0.2-0.3-0.4-0.4-0.6c-0.8-1.2-2.1-2.5-3.4-3.9c-0.1-0.1-0.2-0.2-0.4-0.4c-4.3-3.1-5.3-7.1-1-11.2c0.1-0.1,0.2-0.3,0.3-0.4
	c2.8-4,6.5-9.3,6.5-9.3l4.1,8.3L-25.1,275.2L-25.1,275.2z M-18.9,236c0.3,0.7,0.8,1.3,0.6,1.5c-0.3,0.5-0.8,0.9-1.3,1.1
	c-0.2,0.1-1-0.8-0.9-0.8C-20.1,237.2-19.6,236.8-18.9,236z M-92.7,91.4c-4.9,7.4-2.9,13.5,0.8,19.2c0.1,0.2,0.2,0.3,0.3,0.5
	c2.5,4.6,5.7,10.3,9,16c0.1,0.2,0.2,0.4,0.3,0.6c1.1,1.3,2.2,2.6,3.1,3.9c1.6-0.7,2.9-1.3,4.3-1.9c0,0,0-0.1,0.1-0.1
	c-0.7-0.4-1.3-0.8-1.9-1.2c1.7-0.5,3.4-1.3,5.8,0.6c-1.8,0.3-2.9,0.4-3.9,0.6l0.1,0.1c-0.1,0-0.1,0-0.2,0.1
	c-0.6,1.7-1.3,3.3-2.1,5.3c2,3.4,3.5,7,4.9,11c0.1,0.2,0.2,0.3,0.3,0.5c4.3,7.9,7.5,13.5,7.5,13.5s21.7,0,40.6,0
	c-0.1-0.4-0.2-0.7-0.3-1.1c0.8,0,1.8,0,2.8,0c0,0.4,0,0.7,0,1.1c3.6,0,7,0,10.2,0c0.2,0,0.4,0,0.6,0c10.5,3.2,16.5-2.8,20-11.9
	c0.1-0.2,0.2-0.4,0.3-0.5c6.1-11,14.9-26.7,20.6-37c0.2-0.3,0.3-0.6,0.5-0.9c5.2-6.9,5.2-12-0.2-19.4c-0.2-0.3-0.3-0.6-0.5-0.9
	c-3.5-6.4-8.3-14.9-12.8-23.1c-0.5-0.8-0.9-1.7-1.4-2.5c-3-5.2-6-10.3-8.7-15.7c-0.3-0.6-0.7-1.2-1-1.7c-2.1-3.8-3.4-6.2-3.4-6.2
	s-4.4,0-11.1,0c-0.2,0-0.4,0-0.6,0c-10.5,3.3-17.5,2.3-28,0c-0.2,0-0.5,0-0.7,0s-0.3,0-0.5,0c-0.2,0-0.3,0-0.5,0
	c-3.6,1.5-6.9,1.9-10.1,1.8c-0.3,0-0.6,0-0.9-0.1c-5-0.4-10.1-3.4-15.4-2.3c0,0,0,0.1-0.1,0.2c-1.6,0.7-1.6,3.7-3.3,6
	c-0.1,0.3-0.2,0.5-0.3,0.8c-0.5,1.1-0.9,2.2-1.3,3.4c-0.4,0.7-0.7,1.3-1.1,2c-2.7,4.9-6,10.9-9.4,16.9c-0.2,0.3-0.3,0.6-0.5,0.9
	c-2.7,4.8-3.7,10.9-7.7,14.7c-0.2,0.3-0.3,0.5-0.5,0.8c-0.8,1.3-1.6,2.5-2.5,3.7c-0.1,0.2-0.3,0.5-0.4,0.7c-0.1,0.2-0.3,0.5-0.4,0.7
	C-92.4,90.7-92.6,91.1-92.7,91.4z M-36.1,138c-1.6-1-2.8-1.7-4.2-2.5c1.6-0.8,3.2-1,4.5,0.3C-35.6,136.1-36,137.2-36.1,138z
	 M-18.9,146.5c1.3,0.2,2.3,0.6,2.5,1.3c0.6,1.6,1,3.3,1.2,5c0.1,0.4-1,0.9-2.1,1.9C-18,151.4-18.5,148.9-18.9,146.5z M-29.7,136.5
	c-1.4,0.7-2.4,0.7-3.3,0c-1.6,0-2.6,0-2.6,0l1.2-1.9c0-0.1-0.1-0.1-0.1-0.2c0.1,0,0.2,0,0.2-0.1l22.1-34l-23.7-36.5h25
	c0,0,1.6,2.9,3.9,7.1c0.1,0.2,0.2,0.3,0.3,0.5c1.1,1.9,2.2,3.9,3.2,6.1c0.1,0.3,0.3,0.5,0.4,0.8c1.8,7.1,5.6,12.1,9.9,17.8
	c0.2,0.2,0.4,0.5,0.6,0.8c0.5,0.9,1.5,1.9,1.5,3.8c0,0-0.1,0.1-0.2,0.3c-2.8,4.9-4.8,9-7.5,13.7c-0.1,0.2-0.2,0.4-0.3,0.6
	c-1.8,3.2-3.6,6.5-5.3,9.7c-0.1,0.3-0.3,0.5-0.4,0.8c-2.8,5.5-6.2,10.9-12.1,11.1c0.1,0.9-0.8,1.4-3,2.8c0.3-1.1,0.6-2.1,0.8-2.9
	c-0.2,0-0.4,0-0.5-0.1c-0.2,0-0.4,0-0.6,0C-23.4,136.5-26.9,136.5-29.7,136.5z M-32.4,138.5c-0.2,1.5-0.6,2.9-3.1,2.3
	C-34.2,139.8-33.3,139.1-32.4,138.5z M-40.6,150.6c2.4,0,4.2,0,6.2,0c0.5-3.1,3-1.5,4.6-1.8c0.8,2,1.4,3.8,2.1,5.7
	c-0.9,0.3-1.2,0.5-1.3,0.5c-3.4-1.6-7.1-2.2-10.8-2.8C-40,152.2-40.1,151.4-40.6,150.6z M-46.3,136.1c-0.6-2.1,0.7-3.1,1.9-4.2
	c0.7,1.5,1.2,2.7,1.9,4.2C-43.8,136.1-44.9,136.1-46.3,136.1z M-48.8,145.8c0.3-0.2,0.5-0.5,0.8-0.7c0.5,0.7,1,1.3,1.5,2
	c-0.2,0.2-0.4,0.3-0.6,0.5C-47.6,147-48.2,146.4-48.8,145.8z M-49.6,138.1c1.4,0.7,2.9,0.1,3.3,2.1
	C-47.7,140.2-49.4,141.3-49.6,138.1z M-51.4,135c0.5-1.7,0.9-3,1.5-5.1C-48.6,132.9-48.7,133.2-51.4,135z M-64.1,131
	c0.5-1.2,1.5-2.3,2.3-3.3c0.2-0.2,0.8,0,1.1,0c-0.4,2.1-0.7,4-1.1,6.2C-64.2,132.9-64.7,132.4-64.1,131z M-68.5,148.8
	c0.1-0.3,0.2-0.6,0.3-1c0.6,0.2,1.3,0.5,1.9,0.7l-0.2,0.6C-67.2,149.1-67.8,148.9-68.5,148.8z M-68.4,138.1c0.7,0.4,1.3,0.7,2.6,1.3
	C-68.2,139.8-68.2,139.8-68.4,138.1z M-70.6,100.2l14.1-25.4c0,0,5.5,8.5,10.2,15.7c0.1,0.2,0.2,0.4,0.4,0.6
	c1.8,2.7,3.8,5.7,6.3,9.2c0,0-0.1,0.1-0.2,0.3c-2.3,4.3-4.3,7.3-7.3,10.6c-0.1,0.2-0.3,0.4-0.4,0.6c-3.7,3.2-4.7,10.3-9.8,13.3
	c0-1,0-2-0.7-2.1c-0.1-0.3-0.3-0.6-0.5-0.9C-62.4,115-70.6,100.2-70.6,100.2z M138,399c0-12.8,0-41.8,0-41.8s-0.6-0.7-1.7-1.9
	c-1.5,1.3-3.3,1.5-5.3,1.7c-0.3-0.6-0.6-1.1-0.9-1.6c0.8-0.1,1.6,0,2.2-0.2c0.8-0.2,1.7-0.3,2.4-0.7c0.2-0.1,0.3-0.2,0.5-0.4
	c-0.3-0.3-0.6-0.7-1-1.1c-0.2-0.2-0.4-0.5-0.7-0.7c-1.2-1.3-2.3-2.6-3.4-3.9c-0.1,0.3-0.3,0.6-0.5,0.9c-0.8,0-1.6,0-2.8,0
	c0.4-0.9,0.2-1.7-0.1-2.6c-2.6-1.2-4.5-2.9-6-4.9c-0.6-0.1-1.2-0.4-2.2-0.9c0-0.3-0.1-0.7-0.1-1c0-0.3,0.1-0.7,0.2-1.4
	c0.1,0.1,0.2,0.1,0.3,0.2c-0.7-1.5-1.3-3.2-1.8-4.9c-0.2-0.2-0.3-0.4-0.5-0.5c-7.3-8.3-13.8-15.5-13.8-15.5s-13.3,0-27,0
	c-0.2,0-0.5,0-0.7,0c-10.5-2.4-24.6-3.4-31.2,2.3c-0.2,0.2-0.3,0.4-0.5,0.6c-5.4,6.1-18.3,20.5-26.2,29.4c-0.1,0.1-0.2,0.3-0.3,0.4
	c-6.6,5.2-5.6,12.3-6.2,20.1c0,0.2,0,0.5,0,0.7c0,0.7,0,1.4,0,2.2c0,0.2,0,0.5,0,0.7c-1.4,6.6-1.4,13.7,0,20.5c0,0.2,0,0.4,0,0.6
	c0,5.7,0,9.7,0,9.7s5.6,6.2,12.3,13.9c0.2,0.2,0.3,0.4,0.5,0.5c3.9,4.6,10,8.7,13.4,15c0.1,0.2,0.3,0.3,0.4,0.5
	c5,5.6,8.8,9.8,8.8,9.8s29.1,0,45.7,0c0.2,0,0.4,0,0.6,0c6.6,0.5,12.7-3.5,18-8.4c0.1-0.2,0.3-0.3,0.4-0.5
	c5.5-6.2,13.1-14.7,18.8-21.1c0.1-0.1,0.3-0.3,0.4-0.4c3.2-4.3,9.3-8.4,8.3-14.2C138,399.7,138,399.3,138,399z M107.6,337.3
	c0.6,0.1,1.3,0.1,2.3,0.2c-0.6,0.8-0.9,1.3-1.3,1.8c-0.5-0.4-1-0.9-1.6-1.3C107.2,337.8,107.4,337.5,107.6,337.3z M71.6,331.8
	c-1.9,0.1-2.5-0.5-2.6-2C70.5,329.4,71.1,330.2,71.6,331.8z M112.9,368.6c0,0-2.3,0-5.4,0c-0.2,0-0.4,0-0.6,0c-5,0-11.1-2-13.1,1
	c-3,2-1,8.1-1,13.6c0,0.3,0,0.6,0,1c0,1.3,0,2.6,0,3.8c0,0.4,0,0.8,0,1.2c0,2.6,0,4.4,0,4.4h20.3v1.7l-21.4,24.2H87c0,0,0-1.9,0-4.4
	c0-0.2,0-0.4,0-0.6c-0.2-3.6-0.2-8.7-0.2-12.7c-5,3-10.1,0-15.2-0.1c-0.2,0-0.5,0-0.7,0c-4.8,0-9,0-9,0v17.8h-4.6l-21.4-24.2v-1.7
	c0,0,1.3,0,3.2,0c0.2,0,0.3,0,0.5,0c6,0.1,11.1-1.9,17.1-0.9c0-3,0-7-0.5-10.3c0-0.2,0-0.5,0-0.7c0-6.5,0-13.3,0-13.3H35.9v-1.7
	c0,0,6.3-7.1,12.2-13.7c0.2-0.2,0.3-0.3,0.5-0.5c1-1,1.8-2.2,2.6-3.6c-0.7-1.5-1.3-2.8-1.9-4.2c1.3-0.9,2.2-1.7,3.4-2.3
	c1-0.6,2.3-0.2,2.8,0.6c0.8-0.6,1.6-1.1,2.6-1.1c0.1-0.2,0.2-0.5,0.3-0.8c0.1,0.3,0.2,0.5,0.3,0.8c0.9,0.1,1.9,0.5,3.1,1.3
	c1,1,0,5,0.3,8.2c0,0.2,0,0.4,0,0.7c0,4.2,0,8.3,0,8.3s3.7,0,8.3,0c0.5,0,0.9,0,1.4,0c5.1,0.1,11.2,2.1,14.2-0.9c2-1,1-7,0.8-10.6
	c0-0.3,0-0.6,0-0.9c0-2.1,0.2-4.1,1.2-5.6c0-1,4,0,5.5,2.2c0.2,0.2,0.4,0.4,0.6,0.7c5.5,6.2,19.1,21.4,19.1,21.4v1.9H112.9z
	 M113.3,335.4c-0.6,0.8-0.6,0.7-2.5,1c0.9-0.8,1.5-1.3,2.3-1.9C113.2,335,113.4,335.3,113.3,335.4z M128.4,353.6c0-0.1,0-0.1,0-0.2
	c-0.5,0.2-1,0.4-1.6,0.7c0-1.2,0-2.1,0-3c0.3-0.2,0.7-0.4,1-0.6c0.2,0.9,0.4,1.9,0.6,2.8c0.3-0.2,0.7-0.3,1-0.4
	C129.1,353.2,128.8,353.4,128.4,353.6z M-202.5,517.1c-0.3-0.3-0.4-0.6-0.4-1V478c0-0.4,0.1-0.8,0.4-1c0.3-0.3,0.6-0.4,1-0.4h16.4
	c5,0,9,1.1,11.8,3.4c2.8,2.3,4.3,5.6,4.3,10.1c0,4.3-1.4,7.7-4.2,9.9c-2.8,2.2-6.7,3.3-11.8,3.3h-6.9v12.8c0,0.4-0.1,0.8-0.4,1
	c-0.3,0.3-0.6,0.4-1.1,0.4h-8C-201.8,517.5-202.2,517.4-202.5,517.1z M-185.3,495.1c1.7,0,3-0.4,4-1.3c1-0.9,1.5-2.2,1.5-3.9
	c0-1.6-0.5-2.9-1.4-3.8c-0.9-0.9-2.3-1.4-4.1-1.4h-6.8v10.5L-185.3,495.1L-185.3,495.1z M-159.6,513.9c-3.1-2.7-4.8-6.6-5-11.8
	c0-1-0.1-2.8-0.1-5.1c0-2.4,0-4.1,0.1-5.2c0.2-5,1.9-9,5.1-11.8c3.2-2.7,7.5-4.1,13-4.1c3.4,0,6.5,0.6,9.3,1.7
	c2.7,1.1,4.9,2.8,6.4,4.9c1.6,2.1,2.4,4.6,2.4,7.4v0.1c0,0.3-0.1,0.6-0.4,0.8c-0.3,0.2-0.5,0.3-0.8,0.3h-8c-0.5,0-0.9-0.1-1.2-0.3
	c-0.3-0.2-0.5-0.6-0.7-1.2c-0.5-2-1.4-3.4-2.6-4.2c-1.2-0.8-2.7-1.2-4.6-1.2c-4.6,0-6.9,2.6-7.1,7.8c0,1-0.1,2.7-0.1,4.8
	c0,2.2,0,3.8,0.1,4.9c0.2,5.1,2.5,7.8,7.1,7.8c1.9,0,3.5-0.4,4.7-1.2c1.2-0.8,2-2.2,2.5-4.1c0.2-0.6,0.4-1,0.6-1.2
	c0.3-0.2,0.7-0.3,1.2-0.3h8c0.3,0,0.6,0.1,0.9,0.3s0.4,0.5,0.3,0.9c0,2.8-0.8,5.3-2.4,7.4c-1.6,2.1-3.7,3.7-6.4,4.9
	c-2.7,1.1-5.8,1.7-9.3,1.7C-152,518.1-156.5,516.7-159.6,513.9z M-104.4,528.5c-2.3-1.2-3.9-2.6-4.9-4.1c-1-1.6-1.5-2.8-1.5-3.9
	c0-0.3,0.2-0.7,0.5-0.9c0.3-0.3,0.7-0.4,1-0.4h7.4c0.4,0,0.7,0.1,0.9,0.3c0.2,0.2,0.4,0.5,0.6,0.9c0.4,0.9,0.9,1.6,1.6,2.1
	c0.7,0.5,1.7,0.8,3.1,0.8c1.8,0,3.1-0.4,4-1.3c0.9-0.9,1.3-2.3,1.3-4.4v-4c-2,2.2-4.8,3.3-8.6,3.3c-3.9,0-6.9-1.2-9.1-3.5
	s-3.2-5.6-3.4-10.1l-0.1-1.6c0-4.7,1-8.5,3.1-11.2c2.1-2.7,5.2-4,9.4-4c2,0,3.7,0.4,5.2,1.1c1.5,0.8,2.8,1.8,3.8,3.1v-2.2
	c0-0.4,0.1-0.8,0.4-1c0.3-0.3,0.6-0.4,1-0.4h6.7c0.4,0,0.8,0.1,1.1,0.4c0.3,0.3,0.4,0.6,0.4,1v28.2c0,4.4-1.3,7.9-4,10.2
	c-2.6,2.3-6.4,3.5-11.3,3.5C-99.2,530.4-102.2,529.7-104.4,528.5z M-92,507.6c0.9-1.1,1.3-2.4,1.5-4c0-0.3,0.1-0.9,0.1-1.8
	s0-1.5-0.1-1.7c-0.1-1.6-0.6-3-1.4-4c-0.9-1.1-2.2-1.6-3.9-1.6c-1.8,0-3.1,0.5-4,1.6c-0.8,1.1-1.3,2.6-1.3,4.5l-0.1,1.3
	c0,2.3,0.4,4.1,1.2,5.4c0.8,1.3,2.2,2,4.2,2C-94.1,509.2-92.9,508.7-92,507.6z M-69.8,516.9c-1.7-0.8-3-1.9-4-3.3s-1.4-2.9-1.4-4.6
	c0-2.7,1.1-4.8,3.3-6.5c2.2-1.6,5.2-2.8,9.1-3.4l7.3-1.1V497c0-1.5-0.3-2.6-0.9-3.3c-0.6-0.7-1.7-1-3.1-1c-0.9,0-1.6,0.2-2.2,0.5
	c-0.6,0.3-1.2,0.7-1.8,1.3c-0.5,0.5-1,0.8-1.2,0.9c-0.1,0.3-0.3,0.5-0.6,0.5h-6.3c-0.4,0-0.7-0.1-1-0.4s-0.4-0.6-0.3-0.9
	c0-1,0.6-2.2,1.5-3.5c1-1.3,2.5-2.4,4.5-3.3c2-0.9,4.5-1.4,7.5-1.4c4.8,0,8.4,1.1,10.7,3.2c2.3,2.1,3.4,5,3.4,8.6V516
	c0,0.4-0.1,0.7-0.4,1c-0.3,0.3-0.6,0.4-1,0.4h-6.7c-0.4,0-0.7-0.1-1-0.4c-0.3-0.3-0.4-0.6-0.4-1v-2c-0.9,1.2-2,2.2-3.6,2.9
	c-1.5,0.8-3.3,1.1-5.4,1.1C-66.2,518.1-68.1,517.7-69.8,516.9z M-57,509.6c1.1-1.2,1.7-2.9,1.7-5.1v-0.8l-4.9,0.9
	c-3.5,0.6-5.2,1.8-5.2,3.7c0,1,0.4,1.7,1.2,2.3c0.8,0.6,1.8,0.8,3,0.8C-59.6,511.4-58.1,510.8-57,509.6z M-38.3,517.1
	c-0.3-0.3-0.4-0.6-0.4-1v-27.5c0-0.4,0.1-0.8,0.4-1c0.3-0.3,0.6-0.4,1-0.4h6.3c0.4,0,0.8,0.1,1,0.4c0.3,0.3,0.4,0.6,0.4,1v2
	c0.9-1.2,2.1-2.1,3.6-2.9s3.2-1.1,5-1.1c4.3,0,7.2,1.7,8.9,5c0.9-1.5,2.2-2.7,3.9-3.6s3.5-1.4,5.4-1.4c3.2,0,5.8,1.1,7.9,3.2
	c2,2.2,3,5.4,3,9.7v16.6c0,0.4-0.1,0.7-0.4,1c-0.3,0.3-0.6,0.4-1,0.4H0.1c-0.4,0-0.8-0.1-1.1-0.4c-0.3-0.3-0.4-0.6-0.4-1v-16.2
	c0-1.9-0.4-3.3-1.2-4.2c-0.8-0.9-1.9-1.3-3.2-1.3c-1.2,0-2.3,0.4-3.1,1.3s-1.2,2.3-1.2,4.2v16.2c0,0.4-0.1,0.7-0.4,1
	c-0.3,0.3-0.6,0.4-1,0.4h-6.7c-0.4,0-0.8-0.1-1-0.4c-0.3-0.3-0.4-0.6-0.4-1v-16.2c0-1.9-0.4-3.3-1.3-4.2c-0.8-0.9-1.9-1.3-3.2-1.3
	c-1.2,0-2.3,0.4-3.1,1.3c-0.8,0.9-1.3,2.2-1.3,4.1v16.3c0,0.4-0.1,0.7-0.4,1c-0.3,0.3-0.6,0.4-1,0.4h-6.9
	C-37.7,517.5-38.1,517.4-38.3,517.1z M15.3,482.2c-0.3-0.3-0.4-0.6-0.4-1V476c0-0.4,0.1-0.8,0.4-1c0.3-0.3,0.6-0.4,1-0.4h7
	c0.4,0,0.8,0.1,1,0.4c0.3,0.3,0.4,0.6,0.4,1v5.2c0,0.4-0.1,0.8-0.4,1c-0.3,0.3-0.6,0.4-1,0.4h-7C15.9,482.6,15.5,482.5,15.3,482.2z
	 M15.3,517.1c-0.3-0.3-0.4-0.6-0.4-1v-27.5c0-0.4,0.1-0.8,0.4-1c0.3-0.3,0.6-0.4,1-0.4h6.9c0.4,0,0.8,0.1,1,0.4
	c0.3,0.3,0.4,0.6,0.4,1v27.5c0,0.4-0.1,0.7-0.4,1c-0.3,0.3-0.6,0.4-1,0.4h-6.9C16,517.5,15.6,517.4,15.3,517.1z M32.1,517.1
	c-0.3-0.3-0.4-0.6-0.4-1v-27.5c0-0.4,0.1-0.8,0.4-1c0.3-0.3,0.6-0.4,1-0.4h6.7c0.4,0,0.8,0.1,1.1,0.4c0.3,0.3,0.4,0.6,0.4,1v2.2
	c1-1.3,2.4-2.3,4-3.1c1.6-0.8,3.5-1.2,5.6-1.2c3.4,0,6.2,1.2,8.4,3.5c2.1,2.3,3.2,5.5,3.2,9.8v16.3c0,0.4-0.1,0.7-0.4,1
	c-0.3,0.3-0.6,0.4-1,0.4h-7.3c-0.4,0-0.7-0.1-1-0.4c-0.3-0.3-0.4-0.6-0.4-1v-16c0-1.8-0.4-3.2-1.3-4.2c-0.9-1-2.2-1.5-3.8-1.5
	s-2.9,0.5-3.8,1.5c-0.9,1-1.4,2.4-1.4,4.2v16c0,0.4-0.1,0.7-0.4,1c-0.3,0.3-0.6,0.4-1,0.4h-7.5C32.7,517.5,32.3,517.4,32.1,517.1z
	 M75.2,528.5c-2.3-1.2-3.9-2.6-4.9-4.1c-1-1.6-1.5-2.8-1.5-3.9c0-0.3,0.2-0.7,0.5-0.9c0.3-0.3,0.7-0.4,1-0.4h7.4
	c0.4,0,0.7,0.1,0.9,0.3c0.2,0.2,0.4,0.5,0.6,0.9c0.4,0.9,0.9,1.6,1.6,2.1c0.7,0.5,1.7,0.8,3.1,0.8c1.8,0,3.1-0.4,4-1.3
	c0.9-0.9,1.3-2.3,1.3-4.4v-4c-2,2.2-4.8,3.3-8.6,3.3c-3.9,0-6.9-1.2-9.1-3.5c-2.1-2.3-3.2-5.6-3.4-10.1l-0.1-1.6
	c0-4.7,1-8.5,3.1-11.2s5.2-4,9.4-4c2,0,3.7,0.4,5.2,1.1c1.5,0.8,2.8,1.8,3.8,3.1v-2.2c0-0.4,0.1-0.8,0.4-1c0.3-0.3,0.6-0.4,1-0.4
	h6.7c0.4,0,0.8,0.1,1.1,0.4c0.3,0.3,0.4,0.6,0.4,1v28.2c0,4.4-1.3,7.9-4,10.2c-2.6,2.3-6.4,3.5-11.3,3.5
	C80.5,530.4,77.5,529.7,75.2,528.5z M87.7,507.6c0.9-1.1,1.3-2.4,1.5-4c0-0.3,0.1-0.9,0.1-1.8s0-1.5-0.1-1.7c-0.1-1.6-0.6-3-1.4-4
	c-0.9-1.1-2.2-1.6-3.9-1.6c-1.8,0-3.1,0.5-4,1.6c-0.8,1.1-1.3,2.6-1.3,4.5l-0.1,1.3c0,2.3,0.4,4.1,1.2,5.4c0.8,1.3,2.2,2,4.2,2
	C85.5,509.2,86.8,508.7,87.7,507.6z M123.5,516.7c-2.1-0.9-3.7-2-4.7-3.2c-1-1.2-1.5-2.3-1.5-3.3c0-0.4,0.1-0.7,0.4-1
	c0.3-0.3,0.6-0.4,1-0.4h6.6c0.2,0,0.4,0.1,0.6,0.3c0.5,0.3,0.8,0.6,1,0.8c0.9,0.6,1.6,1.1,2.2,1.4s1.4,0.4,2.4,0.4
	c1.1,0,2-0.2,2.8-0.7c0.7-0.4,1.1-1.1,1.1-1.9c0-0.7-0.2-1.2-0.6-1.6s-1.1-0.8-2.1-1.1c-1-0.4-2.6-0.8-4.8-1.2
	c-3.2-0.7-5.7-1.7-7.4-3.2c-1.7-1.5-2.6-3.5-2.6-6c0-1.6,0.5-3.1,1.5-4.5c1-1.4,2.5-2.6,4.5-3.5c2-0.9,4.4-1.3,7.1-1.3
	c2.8,0,5.2,0.4,7.2,1.3c2.1,0.9,3.6,1.9,4.7,3.1c1.1,1.2,1.6,2.3,1.6,3.3c0,0.3-0.1,0.7-0.4,0.9c-0.3,0.3-0.6,0.4-0.9,0.4h-6
	c-0.3,0-0.6-0.1-0.9-0.3c-0.5-0.3-1-0.6-1.3-0.9c-0.7-0.5-1.3-0.9-1.9-1.2c-0.6-0.3-1.3-0.4-2.2-0.4c-1,0-1.8,0.2-2.4,0.7
	c-0.6,0.5-0.9,1.1-0.9,1.8c0,0.6,0.2,1.1,0.5,1.5c0.3,0.4,1,0.8,2.1,1.1c1.1,0.4,2.6,0.7,4.7,1.1c3.8,0.7,6.5,1.8,8.3,3.5
	s2.6,3.6,2.6,5.9c0,2.9-1.3,5.2-3.8,6.9c-2.6,1.7-6.1,2.6-10.8,2.6C128.2,518.1,125.6,517.6,123.5,516.7z M151.6,482.2
	c-0.3-0.3-0.4-0.6-0.4-1V476c0-0.4,0.1-0.8,0.4-1c0.3-0.3,0.6-0.4,1-0.4h7c0.4,0,0.8,0.1,1,0.4c0.3,0.3,0.4,0.6,0.4,1v5.2
	c0,0.4-0.1,0.8-0.4,1c-0.3,0.3-0.6,0.4-1,0.4h-7C152.2,482.6,151.9,482.5,151.6,482.2z M151.7,517.1c-0.3-0.3-0.4-0.6-0.4-1v-27.5
	c0-0.4,0.1-0.8,0.4-1c0.3-0.3,0.6-0.4,1-0.4h6.9c0.4,0,0.8,0.1,1,0.4c0.3,0.3,0.4,0.6,0.4,1v27.5c0,0.4-0.1,0.7-0.4,1
	c-0.3,0.3-0.6,0.4-1,0.4h-6.9C152.3,517.5,151.9,517.4,151.7,517.1z M168.4,517.1c-0.3-0.3-0.4-0.6-0.4-1v-27.5c0-0.4,0.1-0.8,0.4-1
	c0.3-0.3,0.6-0.4,1-0.4h6.7c0.4,0,0.8,0.1,1.1,0.4c0.3,0.3,0.4,0.6,0.4,1v2.2c1-1.3,2.4-2.3,4-3.1c1.6-0.8,3.5-1.2,5.6-1.2
	c3.4,0,6.2,1.2,8.4,3.5c2.1,2.3,3.2,5.5,3.2,9.8v16.3c0,0.4-0.1,0.7-0.4,1c-0.3,0.3-0.6,0.4-1,0.4h-7.3c-0.4,0-0.7-0.1-1-0.4
	c-0.3-0.3-0.4-0.6-0.4-1v-16c0-1.8-0.4-3.2-1.3-4.2s-2.2-1.5-3.8-1.5c-1.6,0-2.9,0.5-3.8,1.5s-1.4,2.4-1.4,4.2v16
	c0,0.4-0.1,0.7-0.4,1c-0.3,0.3-0.6,0.4-1,0.4h-7.3C169,517.5,168.7,517.4,168.4,517.1z M208.8,514.5c-2.7-2.3-4.2-5.6-4.4-9.9
	l-0.1-2.3l0.1-2.4c0.2-4.2,1.6-7.5,4.3-9.9c2.7-2.4,6.3-3.5,10.8-3.5c3.3,0,6.1,0.6,8.4,1.8c2.3,1.2,4,2.6,5.1,4.2
	c1.1,1.6,1.7,3.2,1.8,4.5c0,0.4-0.1,0.7-0.4,1c-0.3,0.3-0.6,0.4-1.1,0.4h-7.4c-0.4,0-0.8-0.1-1-0.3c-0.2-0.2-0.4-0.5-0.6-0.9
	c-0.5-1.2-1.1-2.1-1.8-2.6c-0.7-0.5-1.6-0.8-2.8-0.8c-3.2,0-4.8,2.1-4.9,6.2l-0.1,2.2l0.1,1.9c0.1,2.1,0.5,3.6,1.4,4.6
	c0.8,1,2,1.5,3.6,1.5c1.2,0,2.2-0.3,2.8-0.8c0.7-0.5,1.3-1.4,1.7-2.6c0.2-0.4,0.4-0.7,0.6-0.9c0.2-0.2,0.6-0.3,1-0.3h7.4
	c0.4,0,0.7,0.1,1,0.4c0.3,0.3,0.4,0.6,0.4,1c0,1.2-0.5,2.7-1.6,4.4c-1.1,1.7-2.7,3.1-5,4.4c-2.3,1.3-5.1,1.9-8.6,1.9
	C215.2,518.1,211.7,516.9,208.8,514.5z M243.2,514.2c-2.7-2.5-4.1-6.2-4.2-11.1v-2c0.2-4.6,1.6-8.3,4.3-10.8
	c2.7-2.6,6.3-3.9,10.9-3.9c3.3,0,6.1,0.7,8.4,2c2.3,1.3,4,3.2,5.1,5.5c1.1,2.3,1.7,5,1.7,8.1v1.4c0,0.4-0.1,0.7-0.4,1
	c-0.3,0.3-0.6,0.4-1,0.4h-18.7v0.4c0.1,1.8,0.5,3.3,1.3,4.4c0.8,1.1,2,1.7,3.5,1.7c1,0,1.8-0.2,2.4-0.6c0.6-0.4,1.2-0.9,1.7-1.5
	c0.3-0.4,0.6-0.7,0.8-0.8c0.2-0.1,0.6-0.1,1-0.1h7.2c0.3,0,0.6,0.1,0.9,0.3c0.3,0.2,0.4,0.5,0.4,0.8c0,1-0.6,2.2-1.7,3.5
	c-1.1,1.3-2.8,2.5-5,3.4c-2.2,1-4.7,1.5-7.8,1.5C249.5,518.1,245.8,516.8,243.2,514.2z M259.1,499.1V499c0-1.9-0.4-3.4-1.3-4.5
	c-0.9-1.1-2.1-1.7-3.6-1.7s-2.7,0.6-3.6,1.7c-0.9,1.1-1.3,2.6-1.3,4.5v0.1H259.1z M299.1,517.1c-0.3-0.3-0.4-0.6-0.4-1v-27.9
	l-8.1,6.1c-0.3,0.2-0.6,0.3-0.9,0.3c-0.4,0-0.8-0.2-1.2-0.7l-3.4-4.5c-0.2-0.3-0.3-0.6-0.3-0.9c0-0.5,0.2-0.9,0.7-1.2l13.5-10.5
	c0.4-0.3,0.9-0.4,1.4-0.4h7.3c0.4,0,0.8,0.1,1,0.4c0.3,0.3,0.4,0.6,0.4,1v38.1c0,0.4-0.1,0.7-0.4,1c-0.3,0.3-0.6,0.4-1,0.4h-7.7
	C299.7,517.5,299.4,517.4,299.1,517.1z M323.3,516.4c-2.6-1.1-4.5-2.7-5.7-4.6c-1.3-1.9-1.9-4.1-1.9-6.5c0-2.1,0.5-3.9,1.5-5.6
	c1-1.6,2.4-2.9,4.1-3.9c-1.4-0.9-2.4-2-3.1-3.4c-0.7-1.4-1.1-2.9-1.1-4.7c0-2.2,0.6-4.2,1.7-6c1.1-1.8,2.9-3.1,5.2-4.2
	c2.3-1,5.2-1.5,8.8-1.5c5.1,0,9,1.1,11.6,3.2c2.6,2.1,3.9,4.9,3.9,8.5s-1.4,6.2-4.1,8.2c1.7,0.9,3.1,2.1,4.2,3.8
	c1,1.7,1.5,3.6,1.5,5.7c0,2.4-0.6,4.6-1.9,6.5c-1.3,1.9-3.2,3.4-5.8,4.6c-2.6,1.1-5.7,1.7-9.5,1.7
	C329,518.1,325.9,517.5,323.3,516.4z M337.6,509.1c1.2-1,1.9-2.3,1.9-3.9s-0.6-2.9-1.9-3.9c-1.2-0.9-2.8-1.4-4.7-1.4
	c-1.9,0-3.5,0.5-4.7,1.4c-1.3,1-1.9,2.2-1.9,3.9s0.6,2.9,1.9,3.9c1.3,1,2.8,1.5,4.7,1.5C334.7,510.5,336.3,510.1,337.6,509.1z
	 M337,491.4c1.1-0.9,1.6-2,1.6-3.3c0-1.4-0.5-2.5-1.6-3.4c-1.1-0.9-2.5-1.3-4.2-1.3c-1.7,0-3.1,0.4-4.2,1.3c-1.1,0.9-1.6,2-1.6,3.4
	s0.5,2.5,1.6,3.4c1.1,0.9,2.5,1.3,4.2,1.3C334.5,492.7,335.9,492.3,337,491.4z M360,517.1c-0.2-0.3-0.3-0.6-0.3-0.9
	c0-0.2,0-0.4,0.1-0.5l13.5-30.3h-17.5c-0.4,0-0.8-0.1-1.1-0.4c-0.3-0.3-0.4-0.6-0.4-1.1V478c0-0.4,0.1-0.8,0.4-1
	c0.3-0.3,0.6-0.4,1.1-0.4h27.4c0.5,0,0.8,0.1,1.1,0.4s0.4,0.6,0.4,1v5.2c0,0.8-0.2,1.7-0.6,2.6l-13.5,30.3c-0.4,0.9-1.1,1.4-2,1.4
	H361C360.5,517.5,360.2,517.4,360,517.1z M395.7,516.3c-2.5-1.2-4.4-2.6-5.6-4.3c-1.2-1.7-1.9-3.5-1.9-5.2c0-0.3,0.1-0.6,0.4-0.9
	c0.3-0.2,0.6-0.3,0.9-0.3h7.7c0.4,0,0.8,0.1,1,0.2c0.3,0.2,0.5,0.4,0.8,0.9c0.8,2,2.9,3,6.3,3c2,0,3.5-0.5,4.6-1.4
	c1.1-0.9,1.7-2.2,1.7-3.8c0-3.1-2-4.7-6-4.7H399c-0.4,0-0.7-0.1-1-0.4c-0.3-0.3-0.4-0.6-0.4-1v-3.3c0-0.9,0.3-1.5,0.9-2l9.6-8.2
	h-16.3c-0.4,0-0.7-0.1-1-0.4c-0.3-0.3-0.4-0.6-0.4-1v-5.5c0-0.4,0.1-0.8,0.4-1c0.3-0.3,0.6-0.4,1-0.4h27c0.4,0,0.8,0.1,1.1,0.4
	c0.3,0.3,0.4,0.6,0.4,1v4.9c0,0.7-0.3,1.4-0.9,1.9l-8.9,8.3l0.4,0.1c3.6,0.5,6.4,1.7,8.6,3.6c2.1,1.9,3.1,4.7,3.1,8.3
	c0,2.6-0.7,4.9-2.2,6.8c-1.5,1.9-3.5,3.4-6.1,4.5c-2.6,1-5.5,1.6-8.9,1.6C401.4,518.1,398.3,517.5,395.7,516.3z"/>
</svg>
